<?xml version="1.0" encoding="iso-8859-1"?>
<!-- Uploaded to: SVG Repo, www.svgrepo.com, Generator: SVG Repo Mixer Tools -->
<svg version="1.1" id="Layer_1" xmlns="http://www.w3.org/2000/svg" xmlns:xlink="http://www.w3.org/1999/xlink" 
	 viewBox="0 0 512 512" xml:space="preserve">
<path style="fill:#FEF2CC;" d="M510.295,226.469C495.65,98.996,387.395,0,256,0C114.615,0,0,114.615,0,256
	c0,116.065,77.247,214.072,183.129,245.459L510.295,226.469z"/>
<path style="fill:#FDE59A;" d="M512,256c0-9.99-0.592-19.84-1.705-29.531L356.174,72.348L256,251.548H106.852l-6.678,166.957
	l82.955,82.955C206.227,508.307,230.68,512,256,512C397.384,512,512,397.384,512,256z"/>
<polygon style="fill:#F63341;" points="256,72.348 244.87,370.643 367.304,370.643 356.174,218.157 356.174,72.348 "/>
<polygon style="fill:#F85C67;" points="155.826,72.348 155.826,218.157 144.696,370.643 256,370.643 256,72.348 "/>
<polygon style="fill:#D8F4F2;" points="278.261,94.609 278.261,300.522 322.783,300.522 333.913,244.87 333.913,94.609 "/>
<polygon style="fill:#FFFFFF;" points="178.087,94.609 178.087,244.87 189.217,300.522 233.739,300.522 233.739,94.609 "/>
<g>
	<rect x="267.13" y="251.548" style="fill:#263230;" width="22.261" height="122.435"/>
	<rect x="311.652" y="251.548" style="fill:#263230;" width="22.261" height="122.435"/>
	<rect x="356.174" y="251.548" style="fill:#263230;" width="22.261" height="122.435"/>
	<rect x="400.696" y="251.548" style="fill:#263230;" width="22.261" height="122.435"/>
</g>
<g>
	<rect x="222.609" y="251.548" style="fill:#394B48;" width="22.261" height="122.435"/>
	<rect x="178.087" y="251.548" style="fill:#394B48;" width="22.261" height="122.435"/>
	<rect x="133.565" y="251.548" style="fill:#394B48;" width="22.261" height="122.435"/>
	<rect x="89.043" y="251.548" style="fill:#394B48;" width="22.261" height="122.435"/>
</g>
<polygon style="fill:#263230;" points="244.87,373.983 256,418.504 411.826,418.504 411.826,385.113 "/>
<polygon style="fill:#394B48;" points="100.174,385.113 100.174,418.504 256,418.504 256,373.983 "/>
<polygon style="fill:#4C6460;" points="256,362.852 236.212,373.983 256,385.113 434.087,385.113 434.087,362.852 "/>
<rect x="77.913" y="362.852" style="fill:#616F6D;" width="178.087" height="22.261"/>
<polygon style="fill:#4C6460;" points="256,244.87 236.212,256 256,267.13 434.087,267.13 434.087,244.87 "/>
<rect x="77.913" y="244.87" style="fill:#616F6D;" width="178.087" height="22.261"/>
</svg>