<?xml version="1.0" encoding="iso-8859-1"?>
<!-- Uploaded to: SVG Repo, www.svgrepo.com, Generator: SVG Repo Mixer Tools -->
<svg version="1.1" id="Layer_1" xmlns="http://www.w3.org/2000/svg" xmlns:xlink="http://www.w3.org/1999/xlink" 
	 viewBox="0 0 512 512" xml:space="preserve">
<path style="fill:#02967D;" d="M511.91,249.232C508.321,110.976,395.122,0,256,0C114.615,0,0,114.616,0,256
	c0,123.297,87.17,226.225,203.241,250.545L511.91,249.232z"/>
<path style="fill:#0E7563;" d="M512,256c0-2.263-0.031-4.519-0.09-6.768L467.478,204.8l-88.666,88.666L184.029,98.684l-73.555,3.539
	L68.73,372.035l134.51,134.51C220.268,510.112,237.913,512,256,512C397.384,512,512,397.384,512,256z"/>
<g>
	<polygon style="fill:#40D2BE;" points="89.043,182.539 100.174,217.049 66.783,217.049 66.783,182.539 	"/>
	<polygon style="fill:#40D2BE;" points="111.304,182.539 100.174,217.049 133.565,217.049 133.565,182.539 	"/>
</g>
<polygon style="fill:#B1EAE5;" points="178.087,138.017 178.087,160.278 200.348,160.278 200.348,138.017 189.217,126.887 "/>
<path style="fill:#7DDCD4;" d="M144.696,82.365c-30.687,0-55.652,24.966-55.652,55.652v136.534h22.261V138.017
	c0-18.412,14.979-33.391,33.391-33.391s33.391,14.979,33.391,33.391h22.261C200.348,107.331,175.382,82.365,144.696,82.365z"/>
<rect x="374.539" y="362.852" style="fill:#B1EAE5;" width="33.391" height="44.522"/>
<g>
	<path style="fill:#D8F4F2;" d="M256,385.113h155.826c24.487,0,44.522-20.035,44.522-44.522V215.93H206.191L256,385.113z"/>
	<rect x="104.07" y="362.852" style="fill:#D8F4F2;" width="33.391" height="44.522"/>
</g>
<path style="fill:#FFFFFF;" d="M55.652,215.93v124.661c0,24.487,20.035,44.522,44.522,44.522H256V215.93H55.652z"/>
<polygon style="fill:#B1EAE5;" points="356.174,204.8 333.913,227.061 467.478,227.061 467.478,204.8 "/>
<polygon style="fill:#D8F4F2;" points="44.522,204.8 44.522,227.061 178.087,227.061 155.826,204.8 "/>
<polygon style="fill:#FBD867;" points="356.174,204.8 356.174,316.104 256,316.104 233.739,243.757 256,204.8 311.652,204.8 
	322.783,215.93 333.913,204.8 "/>
<polygon style="fill:#FDE59A;" points="256,204.8 256,316.104 155.826,316.104 155.826,204.8 178.087,204.8 189.217,215.93 
	200.348,204.8 "/>
<polygon style="fill:#FEF2CC;" points="311.652,204.8 311.652,271.583 256,271.583 244.87,282.713 256,293.843 333.913,293.843 
	333.913,204.8 "/>
<polygon style="fill:#FFFFFF;" points="200.348,271.583 200.348,204.8 178.087,204.8 178.087,293.843 256,293.843 256,271.583 "/>
</svg>