<?xml version="1.0" encoding="iso-8859-1"?>
<!-- Uploaded to: SVG Repo, www.svgrepo.com, Generator: SVG Repo Mixer Tools -->
<svg version="1.1" id="Layer_1" xmlns="http://www.w3.org/2000/svg" xmlns:xlink="http://www.w3.org/1999/xlink" 
	 viewBox="0 0 512 512" xml:space="preserve">
<path style="fill:#FBD867;" d="M502.388,186.283C472.031,78.782,373.217,0,256,0C114.616,0,0,114.616,0,256
	c0,118.321,80.279,217.876,189.335,247.214L502.388,186.283z"/>
<path style="fill:#F9BE02;" d="M512,256c0-24.168-3.354-47.551-9.612-69.717L409.6,93.496L140.402,391.317l-15.741,47.222
	l64.675,64.674C210.592,508.931,232.937,512,256,512C397.384,512,512,397.384,512,256z"/>
<polygon style="fill:#F97D85;" points="146.922,438.539 124.661,438.539 124.661,405.148 146.922,382.887 "/>
<g>
	<polygon style="fill:#F85C67;" points="387.339,438.539 365.078,438.539 365.078,382.887 387.339,405.148 	"/>
	<polygon style="fill:#F85C67;" points="387.339,104.626 211.478,104.626 256,405.148 387.339,405.148 	"/>
</g>
<rect x="124.661" y="104.626" style="fill:#F97D85;" width="131.339" height="300.522"/>
<polygon style="fill:#A72B1A;" points="365.078,138.017 256,138.017 222.609,193.67 256,249.322 365.078,249.322 "/>
<rect x="146.922" y="138.017" style="fill:#C92B31;" width="109.078" height="111.304"/>
<polygon style="fill:#FEF2CC;" points="365.078,271.583 256,271.583 222.609,316.104 256,382.887 365.078,382.887 "/>
<rect x="146.922" y="271.583" style="fill:#FFFFFF;" width="109.078" height="111.304"/>
<g>
	<rect x="244.87" y="304.974" style="fill:#F97D85;" width="22.261" height="22.261"/>
	<polygon style="fill:#F97D85;" points="409.6,93.496 256,93.496 244.87,104.626 256,115.757 409.6,115.757 	"/>
</g>
<rect x="102.4" y="93.496" style="fill:#FB9DA4;" width="153.6" height="22.261"/>
</svg>