<?xml version="1.0" encoding="iso-8859-1"?>
<!-- Uploaded to: SVG Repo, www.svgrepo.com, Generator: SVG Repo Mixer Tools -->
<svg version="1.1" id="Layer_1" xmlns="http://www.w3.org/2000/svg" xmlns:xlink="http://www.w3.org/1999/xlink" 
	 viewBox="0 0 512 512" xml:space="preserve">
<path style="fill:#FDE59A;" d="M502.865,188.05C473.095,79.648,373.856,0,256,0C114.615,0,0,114.615,0,256
	c0,141.384,114.615,256,256,256c1.838,0,3.667-0.031,5.495-0.069L502.865,188.05z"/>
<path style="fill:#FBD867;" d="M512,256c0-23.529-3.191-46.309-9.135-67.95l-89.458-89.458L48.061,291.417l184.326,184.326
	l-4.213,2.866l33.321,33.321C400.342,509.005,512,395.548,512,256z"/>
<g>
	<path style="fill:#A72B1A;" d="M400.696,261.565v44.522c0,18.412-14.979,33.391-33.391,33.391h-11.13v-33.391h-22.261v44.522
		c0,18.412-14.979,33.391-33.391,33.391H256v22.261h44.522c26.876,0,49.361-19.15,54.532-44.522h12.25
		c30.687,0,55.652-24.966,55.652-55.652v-44.522H400.696z"/>
	<polygon style="fill:#A72B1A;" points="233.739,278.261 256,478.609 283.826,478.609 283.826,278.261 	"/>
</g>
<g>
	<path style="fill:#F63341;" d="M111.304,261.565v44.522c0,18.412,14.979,33.391,33.391,33.391h11.13v-33.391h22.261v44.522
		c0,18.412,14.979,33.391,33.391,33.391H256v22.261h-44.522c-26.876,0-49.361-19.15-54.532-44.522h-12.25
		c-30.687,0-55.652-24.966-55.652-55.652v-44.522H111.304z"/>
	<rect x="228.174" y="278.261" style="fill:#F63341;" width="27.826" height="200.348"/>
</g>
<path style="fill:#02C8A7;" d="M458.335,215.753c7.871-13.138,9.641-29.705,3.329-44.941c-6.311-15.238-19.277-25.7-34.133-29.424
	c2.244-15.151-2.461-31.133-14.122-42.794s-27.644-16.367-42.795-14.122c-3.724-14.857-14.187-27.822-29.424-34.133
	c-15.238-6.311-31.803-4.542-44.941,3.329C287.121,41.365,272.493,33.391,256,33.391l-44.522,136.348L256,306.087
	c79.346,0,158.691,0,172.522,0c27.662,0,50.087-22.424,50.087-50.087C478.609,239.507,470.635,224.879,458.335,215.753z"/>
<path style="fill:#40D2BE;" d="M215.753,53.665c-13.138-7.871-29.705-9.641-44.941-3.329c-15.238,6.311-25.7,19.276-29.424,34.133
	c-15.151-2.244-31.133,2.461-42.795,14.122s-16.367,27.644-14.122,42.794c-14.857,3.724-27.822,14.187-34.133,29.424
	c-6.312,15.238-4.542,31.803,3.329,44.941C41.365,224.879,33.391,239.507,33.391,256c0,27.662,22.424,50.087,50.087,50.087
	c13.831,0,93.176,0,172.522,0V33.391C239.507,33.391,224.879,41.365,215.753,53.665z"/>
<g>
	<rect x="345.043" y="128" style="fill:#02AF92;" width="22.261" height="22.261"/>
	<rect x="278.261" y="261.565" style="fill:#02AF92;" width="22.261" height="22.261"/>
</g>
<g>
	<rect x="211.478" y="128" style="fill:#02C8A7;" width="22.261" height="22.261"/>
	<rect x="122.435" y="194.783" style="fill:#02C8A7;" width="22.261" height="22.261"/>
	<rect x="178.087" y="94.609" style="fill:#02C8A7;" width="22.261" height="22.261"/>
</g>
</svg>