<?xml version="1.0" encoding="iso-8859-1"?>
<!-- Uploaded to: SVG Repo, www.svgrepo.com, Generator: SVG Repo Mixer Tools -->
<svg version="1.1" id="Layer_1" xmlns="http://www.w3.org/2000/svg" xmlns:xlink="http://www.w3.org/1999/xlink" 
	 viewBox="0 0 512 512" xml:space="preserve">
<path style="fill:#A72B1A;" d="M511.916,262.595c0.056-2.192,0.083-4.39,0.083-6.595C512,114.616,397.384,0,256,0S0,114.616,0,256
	c0,117.217,78.782,216.029,186.283,246.388L511.916,262.595z"/>
<path style="fill:#701C12;" d="M444.104,194.783l-13.236,7.908L289.391,61.215l-13.043,31.479L244.87,61.215v110.604L67.896,217.043
	l73.946,73.946L90.157,406.261l96.127,96.127C208.449,508.646,231.832,512,256,512c139.179,0,252.418-111.068,255.916-249.405
	L444.104,194.783z"/>
<polygon style="fill:#889391;" points="421.843,372.87 421.843,406.261 283.826,406.261 256,350.609 "/>
<polygon style="fill:#FEF2CC;" points="421.843,194.783 421.843,372.87 380.661,372.87 352.835,361.739 325.009,372.87 
	228.174,372.87 228.174,129.937 "/>
<polygon style="fill:#B0B7B6;" points="256,350.609 228.174,406.261 90.157,406.261 90.157,372.87 "/>
<polygon style="fill:#FFFFFF;" points="256,161.391 256,372.87 186.991,372.87 159.165,361.739 131.339,372.87 90.157,372.87 
	90.157,194.783 "/>
<polygon style="fill:#02C8A7;" points="352.835,306.085 343.56,364.519 380.661,350.606 380.661,306.085 "/>
<polygon style="fill:#40D2BE;" points="352.835,306.085 325.009,306.085 325.009,350.606 352.835,364.519 "/>
<rect x="325.009" y="350.609" style="fill:#F9BE02;" width="55.652" height="22.261"/>
<polygon style="fill:#40D2BE;" points="159.165,306.085 149.89,364.519 186.991,350.606 186.991,306.085 "/>
<polygon style="fill:#7DDCD4;" points="159.165,306.085 131.339,306.085 131.339,350.606 159.165,364.519 "/>
<rect x="131.339" y="350.609" style="fill:#FBD867;" width="55.652" height="22.261"/>
<polygon style="fill:#02C8A7;" points="352.835,205.911 343.56,275.476 380.661,261.563 380.661,205.911 "/>
<polygon style="fill:#40D2BE;" points="352.835,205.911 325.009,205.911 325.009,261.563 352.835,275.476 "/>
<rect x="325.009" y="261.565" style="fill:#F9BE02;" width="55.652" height="22.261"/>
<polygon style="fill:#02C8A7;" points="256,205.911 246.725,275.476 283.826,261.563 283.826,205.911 "/>
<polygon style="fill:#7DDCD4;" points="256,205.911 228.174,205.911 228.174,261.563 256,275.476 "/>
<polygon style="fill:#40D2BE;" points="159.165,205.911 149.89,275.476 186.991,261.563 186.991,205.911 "/>
<polygon style="fill:#7DDCD4;" points="159.165,205.911 131.339,205.911 131.339,261.563 159.165,275.476 "/>
<rect x="131.339" y="261.565" style="fill:#FBD867;" width="55.652" height="22.261"/>
<polygon style="fill:#F63341;" points="256,306.085 243.975,356.172 256,406.261 283.826,406.261 283.826,306.085 "/>
<rect x="228.174" y="306.087" style="fill:#F85C67;" width="27.826" height="100.174"/>
<rect x="267.13" y="61.215" style="fill:#F9BE02;" width="22.261" height="44.522"/>
<polygon style="fill:#FEF2CC;" points="256,83.476 241.16,127.998 311.652,127.998 311.652,83.476 "/>
<rect x="222.609" y="61.215" style="fill:#FBD867;" width="22.261" height="44.522"/>
<rect x="200.348" y="83.476" style="fill:#FFFFFF;" width="55.652" height="44.522"/>
<polygon style="fill:#F9BE02;" points="283.826,261.565 283.826,283.826 256,283.826 244.87,272.696 256,261.565 "/>
<rect x="228.174" y="261.565" style="fill:#FBD867;" width="27.826" height="22.261"/>
<polygon style="fill:#FDE59A;" points="444.104,194.783 444.104,217.043 256,217.043 233.739,172.522 "/>
<polygon style="fill:#FEF2CC;" points="256,172.522 256,217.043 67.896,217.043 67.896,194.783 "/>
<polygon style="fill:#F63341;" points="444.104,194.783 256,194.783 233.739,150.261 256,105.739 355.061,105.739 "/>
<polygon style="fill:#F85C67;" points="156.939,105.739 67.896,194.783 256,194.783 256,105.739 "/>
</svg>