<?xml version="1.0" encoding="iso-8859-1"?>
<!-- Uploaded to: SVG Repo, www.svgrepo.com, Generator: SVG Repo Mixer Tools -->
<svg version="1.1" id="Layer_1" xmlns="http://www.w3.org/2000/svg" xmlns:xlink="http://www.w3.org/1999/xlink" 
	 viewBox="0 0 512 512" xml:space="preserve">
<path style="fill:#C3C9C8;" d="M504.781,195.466C477.584,83.301,376.528,0,256,0C114.615,0,0,114.616,0,256
	c0,113.751,74.199,210.157,176.831,243.503L504.781,195.466z"/>
<path style="fill:#B0B7B6;" d="M512,256c0-20.857-2.512-41.124-7.219-60.534l-48.433-48.433L256,60.616L55.652,171.922
	l61.702,61.702L77.913,400.584l98.918,98.918C201.764,507.603,228.366,512,256,512C397.385,512,512,397.384,512,256z"/>
<polygon style="fill:#263230;" points="378.435,344.932 378.435,400.584 434.087,400.584 434.087,367.193 "/>
<g>
	<polygon style="fill:#C92B31;" points="434.087,333.802 434.087,367.193 345.043,367.193 286.264,311.541 	"/>
	<rect x="383.688" y="233.628" style="fill:#C92B31;" width="72.659" height="33.391"/>
</g>
<g>
	<polygon style="fill:#F63341;" points="371.467,151.207 256,151.207 202.017,267.019 256,333.802 422.957,333.802 434.087,300.41 	
		"/>
	<rect x="55.652" y="233.628" style="fill:#F63341;" width="72.659" height="33.391"/>
</g>
<polygon style="fill:#394B48;" points="133.565,344.932 133.565,400.584 77.913,400.584 77.913,367.193 "/>
<polygon style="fill:#F63341;" points="227.406,311.541 166.957,367.193 77.913,367.193 77.913,333.802 "/>
<polygon style="fill:#F85C67;" points="140.533,151.207 77.913,300.41 89.043,333.802 256,333.802 256,151.207 "/>
<polygon style="fill:#FDE59A;" points="256,333.802 224.278,350.497 256,367.193 345.043,367.193 329.116,333.802 "/>
<polygon style="fill:#FEF2CC;" points="256,333.802 256,367.193 166.957,367.193 182.884,333.802 "/>
<polygon style="fill:#D8F4F2;" points="356.669,173.468 256,173.468 224.278,220.243 256,267.019 395.932,267.019 "/>
<polygon style="fill:#FFFFFF;" points="155.331,173.468 116.068,267.019 256,267.019 256,173.468 "/>
<path style="fill:#FDE59A;" d="M111.304,300.41H77.913v33.391h66.783C144.696,315.361,129.745,300.41,111.304,300.41z"/>
<path style="fill:#FBD867;" d="M400.696,300.41h33.391v33.391h-66.783C367.304,315.361,382.255,300.41,400.696,300.41z"/>
<polygon style="fill:#616F6D;" points="256,46.859 256,59.303 256,71.747 456.348,171.922 456.348,147.033 "/>
<polygon style="fill:#889391;" points="256,46.859 256,71.747 55.652,171.922 55.652,147.033 "/>
</svg>