<?xml version="1.0" encoding="iso-8859-1"?>
<!-- Uploaded to: SVG Repo, www.svgrepo.com, Generator: SVG Repo Mixer Tools -->
<svg version="1.1" id="Layer_1" xmlns="http://www.w3.org/2000/svg" xmlns:xlink="http://www.w3.org/1999/xlink" 
	 viewBox="0 0 512 512" xml:space="preserve">
<path style="fill:#FDE59A;" d="M501.459,183.129C470.073,77.247,372.065,0,256,0C114.616,0,0,114.616,0,256s114.616,256,256,256
	c2.205,0,4.403-0.028,6.595-0.083L501.459,183.129z"/>
<path style="fill:#FBD867;" d="M512,256c0-25.32-3.694-49.773-10.541-72.871l-86.294-86.294L259.339,252.661L136.904,130.226
	l-30.131-19.001l-3.26,241.609l159.082,159.082C400.932,508.419,512,395.181,512,256z"/>
<polygon style="fill:#C92B31;" points="415.165,408.487 381.774,375.096 381.774,397.357 287.165,397.357 276.035,408.487 
	287.165,419.617 381.774,419.617 381.774,441.878 "/>
<g>
	<polygon style="fill:#F63341;" points="287.165,397.357 192.557,397.357 192.557,375.096 159.165,408.487 192.557,441.878 
		192.557,419.617 287.165,419.617 	"/>
	<polygon style="fill:#F63341;" points="114.643,130.226 136.904,130.226 103.513,96.835 70.122,130.226 92.383,130.226 
		92.383,319.443 70.122,319.443 103.513,352.835 136.904,319.443 114.643,319.443 	"/>
</g>
<polygon style="fill:#FEF2CC;" points="404.035,107.965 287.165,107.965 242.643,224.835 287.165,341.704 404.035,341.704 "/>
<rect x="170.296" y="107.965" style="fill:#FFFFFF;" width="116.87" height="233.739"/>
<g>
	<polygon style="fill:#263230;" points="362.296,96.835 362.296,119.096 392.904,119.096 392.904,213.704 287.165,213.704 
		274.922,224.835 287.165,235.965 392.904,235.965 392.904,330.574 287.165,330.574 274.922,341.704 287.165,352.835 
		415.165,352.835 415.165,96.835 	"/>
	<polygon style="fill:#263230;" points="328.904,119.096 328.904,96.835 287.165,96.835 274.922,107.965 287.165,119.096 	"/>
</g>
<g>
	<polygon style="fill:#394B48;" points="259.339,183.096 237.078,183.096 237.078,266.574 259.339,266.574 259.339,235.965 
		287.165,235.965 287.165,213.704 259.339,213.704 	"/>
	<polygon style="fill:#394B48;" points="159.165,96.835 159.165,352.835 287.165,352.835 287.165,330.574 259.339,330.574 
		259.339,299.965 237.078,299.965 237.078,330.574 181.426,330.574 181.426,119.096 237.078,119.096 237.078,149.704 
		259.339,149.704 259.339,119.096 287.165,119.096 287.165,96.835 	"/>
</g>
</svg>